<?xml version="1.0" encoding="utf-8"?>
<!-- Generator: Adobe Illustrator 16.0.0, SVG Export Plug-In . SVG Version: 6.00 Build 0)  -->
<!DOCTYPE svg PUBLIC "-//W3C//DTD SVG 1.1//EN" "http://www.w3.org/Graphics/SVG/1.1/DTD/svg11.dtd">
<svg version="1.1" id="Шар_1" xmlns="http://www.w3.org/2000/svg" xmlns:xlink="http://www.w3.org/1999/xlink" x="0px" y="0px"
	 width="63.5px" height="63.5px" viewBox="0 0 63.5 63.5" enable-background="new 0 0 63.5 63.5" xml:space="preserve">
<g>
	<path fill="#A6A8AB" d="M43.123,26.276H39.55c-0.063,0-0.118,0.045-0.13,0.104l-1.96,8.769c-0.008,0.039,0.002,0.08,0.026,0.111
		c0.027,0.031,0.063,0.049,0.104,0.049h3.044c0.06,0,0.111-0.038,0.127-0.096l2.489-8.769c0.01-0.039,0.005-0.082-0.021-0.114
		C43.204,26.298,43.166,26.276,43.123,26.276z"/>
	<path fill="#A6A8AB" d="M35.605,26.276h-5.397c-0.041,0-0.076,0.019-0.103,0.05c-0.026,0.032-0.035,0.073-0.026,0.111l1.589,8.771
		c0.014,0.06,0.067,0.102,0.129,0.102h2.219c0.062,0,0.115-0.042,0.13-0.102l1.589-8.77c0.008-0.039-0.002-0.08-0.025-0.112
		C35.684,26.295,35.646,26.276,35.605,26.276z"/>
	<path fill="#A6A8AB" d="M28.345,35.112l-1.95-8.731c-0.014-0.062-0.068-0.104-0.128-0.104h-3.575c-0.042,0-0.083,0.021-0.106,0.055
		c-0.026,0.032-0.035,0.075-0.021,0.114l2.304,8.122c0,0,0.098,0.33,0.166,0.57c0.054,0.189,0.172,0.171,0.253,0.172h2.941
		c0.07-0.001,0.129-0.06,0.129-0.131c0-0.015-0.002-0.026-0.006-0.039L28.345,35.112z"/>
	<path fill="#A6A8AB" d="M60.752,19.465c-1.666-3.801-3.914-7.136-6.746-10.002s-6.165-5.118-9.989-6.758
		C40.189,1.069,36.086,0.25,31.705,0.25s-8.469,0.819-12.266,2.455c-3.797,1.64-7.127,3.892-9.99,6.758
		c-2.86,2.866-5.111,6.201-6.746,10.002c-1.636,3.804-2.452,7.896-2.452,12.284s0.816,8.482,2.452,12.284
		c1.635,3.803,3.886,7.138,6.746,10.003c2.863,2.866,6.193,5.12,9.99,6.757c3.797,1.639,7.885,2.457,12.266,2.457
		s8.484-0.818,12.312-2.457c3.824-1.637,7.157-3.891,9.989-6.757c2.832-2.865,5.08-6.2,6.746-10.003
		c1.663-3.802,2.497-7.896,2.497-12.284S62.415,23.269,60.752,19.465z M48.217,26.05H46.97l-3.392,11.948
		c-0.219,0.771-0.934,1.311-1.734,1.311H26.15l0.413,1.617c0,0,12.577,0.608,15.659,1.105c1.268,0.155,2.258,1.247,2.258,2.549
		c0,1.417-1.154,2.568-2.57,2.568c-1.415,0-2.568-1.151-2.568-2.568c0-0.033,0-0.067,0.003-0.1h-12.4
		c0.002,0.032,0.003,0.066,0.003,0.1c0,1.417-1.151,2.568-2.57,2.568c-1.417,0-2.567-1.151-2.567-2.568
		c0-0.988,0.563-1.875,1.43-2.303l-6.092-21.971l-2.999-0.812c-0.449-0.121-0.822-0.409-1.053-0.811
		c-0.231-0.403-0.292-0.872-0.171-1.318c0.204-0.757,0.894-1.284,1.676-1.284c0.153,0,0.306,0.02,0.454,0.061l3.941,1.065
		c0.582,0.158,1.047,0.614,1.217,1.192l1.128,3.878l26.876,0.005c1.04,0,1.884,0.843,1.884,1.883
		C50.101,25.207,49.257,26.05,48.217,26.05z"/>
</g>
</svg>
