<?xml version="1.0" encoding="utf-8"?>
<!-- Generator: Adobe Illustrator 16.0.0, SVG Export Plug-In . SVG Version: 6.00 Build 0)  -->
<!DOCTYPE svg PUBLIC "-//W3C//DTD SVG 1.1//EN" "http://www.w3.org/Graphics/SVG/1.1/DTD/svg11.dtd">
<svg version="1.1" id="Шар_1" xmlns="http://www.w3.org/2000/svg" xmlns:xlink="http://www.w3.org/1999/xlink" x="0px" y="0px"
	 width="63px" height="54px" viewBox="0 0 63 54" enable-background="new 0 0 63 54" xml:space="preserve">
<g>
	<path fill="#00AEEF" d="M37.648,15.525c0.998,1.007,1.271,2.9,2.537,2.749c3.181-0.382,11.672-5.014,12.549-8.251
		c0.598-2.172-3.301-5.855-4.68-7.234c-4.673-4.671-13.576-3.34-19.887,2.973L6.455,27.479C0.142,33.792-1.19,42.686,3.479,47.367
		c1.381,1.38,5.063,5.268,7.235,4.68c3.226-0.876,7.851-9.354,8.231-12.529c0.16-1.285-1.733-1.558-2.73-2.556
		c-3.328-3.328-1.23-10.824,4.689-16.746C26.827,14.303,34.32,12.195,37.648,15.525L37.648,15.525z"/>
	<g>
		<path fill="#00AEEF" d="M28.09,38.654c-4.223,0-6.333-2.317-6.333-6.95c0-2.306,0.573-4.065,1.724-5.285
			c1.146-1.217,2.793-1.825,4.937-1.825c1.569,0,2.978,0.308,4.222,0.923l-1.091,2.862c-0.583-0.234-1.124-0.426-1.627-0.574
			c-0.501-0.152-1.002-0.228-1.503-0.228c-1.925,0-2.889,1.366-2.889,4.1c0,2.655,0.963,3.981,2.889,3.981
			c0.711,0,1.371-0.098,1.977-0.286c0.608-0.188,1.215-0.487,1.82-0.892v3.164c-0.598,0.381-1.203,0.646-1.813,0.789
			C29.792,38.582,29.022,38.654,28.09,38.654z"/>
		<path fill="#00AEEF" d="M43.971,38.412l-0.717-1.844h-0.1c-0.62,0.783-1.264,1.328-1.924,1.632
			c-0.658,0.303-1.517,0.454-2.576,0.454c-1.301,0-2.325-0.37-3.073-1.116c-0.748-0.743-1.121-1.802-1.121-3.177
			c0-1.441,0.503-2.502,1.511-3.187s2.523-1.063,4.555-1.135l2.354-0.072v-0.595c0-1.375-0.703-2.063-2.109-2.063
			c-1.084,0-2.359,0.326-3.82,0.981l-1.227-2.5c1.561-0.815,3.291-1.224,5.189-1.224c1.818,0,3.217,0.396,4.188,1.189
			c0.971,0.792,1.455,1.998,1.455,3.615v9.037h-2.584V38.412z M42.878,32.128l-1.435,0.049c-1.073,0.033-1.875,0.228-2.399,0.583
			c-0.524,0.354-0.787,0.897-0.787,1.625c0,1.045,0.597,1.563,1.796,1.563c0.856,0,1.543-0.244,2.055-0.739
			c0.515-0.494,0.771-1.148,0.771-1.965V32.128z"/>
		<path fill="#00AEEF" d="M54.063,38.412h-3.699V19.537h3.699V38.412z"/>
		<path fill="#00AEEF" d="M61.645,38.412h-3.699V19.537h3.699V38.412z"/>
	</g>
	<g>
		<path fill="#00AEEF" d="M27.89,44.209c1.113,0,1.987,0.436,2.617,1.305c0.633,0.872,0.946,2.063,0.946,3.579
			c0,1.562-0.324,2.771-0.974,3.628C29.83,53.574,28.94,54,27.821,54c-1.108,0-1.98-0.398-2.609-1.207h-0.18l-0.43,1.04h-1.97
			V40.688h2.578v3.06c0,0.39-0.035,1.013-0.103,1.867h0.103C25.812,44.677,26.706,44.209,27.89,44.209z M27.06,46.271
			c-0.637,0-1.102,0.194-1.395,0.588c-0.292,0.392-0.446,1.037-0.455,1.938v0.276c0,1.015,0.148,1.741,0.45,2.18
			c0.303,0.438,0.78,0.66,1.433,0.66c0.529,0,0.952-0.242,1.264-0.729c0.313-0.486,0.47-1.195,0.47-2.127
			c0-0.931-0.159-1.627-0.474-2.091C28.039,46.503,27.606,46.271,27.06,46.271z"/>
		<path fill="#00AEEF" d="M39.583,53.833l-0.5-1.284h-0.065c-0.435,0.545-0.881,0.926-1.34,1.139C37.217,53.896,36.618,54,35.882,54
			c-0.905,0-1.62-0.258-2.144-0.775c-0.521-0.518-0.78-1.256-0.78-2.214c0-1.003,0.351-1.741,1.052-2.217
			c0.702-0.476,1.762-0.737,3.174-0.79l1.639-0.052V47.54c0-0.958-0.489-1.438-1.469-1.438c-0.756,0-1.645,0.229-2.662,0.688
			l-0.854-1.741c1.086-0.567,2.291-0.854,3.615-0.854c1.269,0,2.239,0.277,2.916,0.828c0.676,0.554,1.014,1.393,1.014,2.521v6.293
			L39.583,53.833L39.583,53.833z M38.818,49.456l-0.993,0.034c-0.75,0.023-1.31,0.158-1.675,0.406
			c-0.365,0.246-0.551,0.623-0.551,1.133c0,0.725,0.418,1.089,1.252,1.089c0.599,0,1.074-0.173,1.433-0.517s0.534-0.801,0.534-1.367
			V49.456z"/>
		<path fill="#00AEEF" d="M47.871,54c-2.939,0-4.413-1.611-4.413-4.84c0-1.604,0.401-2.83,1.201-3.68
			c0.799-0.85,1.944-1.271,3.438-1.271c1.092,0,2.071,0.215,2.938,0.643l-0.761,1.994c-0.404-0.164-0.782-0.297-1.133-0.4
			c-0.351-0.104-0.699-0.155-1.045-0.155c-1.345,0-2.013,0.951-2.013,2.854c0,1.849,0.668,2.771,2.013,2.771
			c0.492,0,0.952-0.064,1.375-0.198c0.424-0.133,0.846-0.34,1.269-0.618v2.202c-0.419,0.265-0.839,0.448-1.265,0.55
			C49.057,53.952,48.52,54,47.871,54z"/>
		<path fill="#00AEEF" d="M55.407,48.695l1.122-1.438l2.646-2.874h2.906l-3.753,4.099l3.979,5.351h-2.974l-2.724-3.827l-1.104,0.889
			v2.938H52.93V40.688h2.577v5.861l-0.135,2.146H55.407z"/>
	</g>
</g>
</svg>
