<?xml version="1.0" encoding="utf-8"?>
<!-- Generator: Adobe Illustrator 16.0.0, SVG Export Plug-In . SVG Version: 6.00 Build 0)  -->
<!DOCTYPE svg PUBLIC "-//W3C//DTD SVG 1.1//EN" "http://www.w3.org/Graphics/SVG/1.1/DTD/svg11.dtd">
<svg version="1.1" id="Шар_1" xmlns="http://www.w3.org/2000/svg" xmlns:xlink="http://www.w3.org/1999/xlink" x="0px" y="0px"
	 width="58px" height="58px" viewBox="0 0 58 58" enable-background="new 0 0 58 58" xml:space="preserve">
<g>
	<path fill="#00AEEF" d="M44.191,15.34c0-8.39-6.805-15.193-15.194-15.193S13.803,6.951,13.803,15.34
		c0,12.021,15.194,29.807,15.194,29.807S44.191,27.296,44.191,15.34L44.191,15.34z M21.507,14.427c0-4.138,3.351-7.488,7.49-7.488
		s7.496,3.352,7.496,7.488c0,4.142-3.356,7.499-7.496,7.499S21.507,18.567,21.507,14.427L21.507,14.427z"/>
	<path fill="#00AEEF" d="M32.68,14.427c0,2.038-1.645,3.69-3.683,3.69c-2.037,0-3.685-1.652-3.685-3.69
		c0-2.029,1.647-3.682,3.685-3.682C31.035,10.745,32.68,12.396,32.68,14.427L32.68,14.427z"/>
	<path fill="#00AEEF" d="M37.588,39.859c-1.242,1.789-2.402,3.352-3.367,4.601c9.598,0.574,15.893,2.647,18.23,4.192
		c-2.741,1.807-10.889,4.353-23.454,4.353c-12.56,0-20.706-2.546-23.449-4.353c2.339-1.539,8.628-3.612,18.216-4.192
		c-0.967-1.249-2.133-2.806-3.371-4.595C8.58,41.025,0,44.52,0,48.652c0,5.08,12.984,9.201,28.997,9.201
		C45.014,57.854,58,53.732,58,48.652C58,44.52,49.408,41.025,37.588,39.859L37.588,39.859z"/>
</g>
</svg>
