<?xml version="1.0" encoding="utf-8"?>
<!-- Generator: Adobe Illustrator 16.0.0, SVG Export Plug-In . SVG Version: 6.00 Build 0)  -->
<!DOCTYPE svg PUBLIC "-//W3C//DTD SVG 1.1//EN" "http://www.w3.org/Graphics/SVG/1.1/DTD/svg11.dtd">
<svg version="1.1" id="Шар_1" xmlns="http://www.w3.org/2000/svg" xmlns:xlink="http://www.w3.org/1999/xlink" x="0px" y="0px"
	 width="73px" height="56px" viewBox="0 0 73 56" enable-background="new 0 0 73 56" xml:space="preserve">
<g>
	<path fill="#00AEEF" d="M38.789,37.15c-1.217,1.221-1.217,3.201,0,4.426c0.592,0.592,1.379,0.916,2.215,0.916
		c0.834,0,1.617-0.324,2.213-0.916L54.59,30.205c0.279-0.284,0.504-0.625,0.672-1.021c0.157-0.383,0.233-0.779,0.233-1.182
		c0-0.401-0.076-0.799-0.244-1.21c-0.157-0.382-0.388-0.718-0.671-1.003L43.217,14.428c-0.59-0.592-1.379-0.917-2.213-0.917
		c-0.84,0-1.623,0.325-2.215,0.917c-1.217,1.215-1.217,3.2,0,4.42l6.029,6.024H3.475c-1.719,0-3.123,1.405-3.123,3.13
		c0,1.721,1.403,3.125,3.123,3.125h41.344L38.789,37.15z"/>
	<path fill="#00AEEF" d="M62.227,0H27.072c-5.75,0-10.428,4.676-10.428,10.421l0.01,11.058h0.625
		c0.572,0.764,1.482,1.262,2.494,1.262c1.043,0,1.959-0.503,2.529-1.282l0.6-0.006V10.421c0-2.294,1.869-4.167,4.168-4.167h35.156
		c2.301,0,4.168,1.873,4.168,4.167v35.162c0,2.295-1.867,4.162-4.168,4.162H27.07c-2.299,0-4.168-1.867-4.168-4.162L22.898,34.52
		h-0.625c-0.575-0.764-1.485-1.256-2.5-1.256c-1.017,0-1.933,0.504-2.508,1.272l-0.621,0.011v11.036
		C16.645,51.328,21.322,56,27.072,56h35.154c5.75,0,10.422-4.672,10.422-10.417V10.421C72.648,4.676,67.977,0,62.227,0L62.227,0z"/>
</g>
</svg>
