<?xml version="1.0" encoding="utf-8"?>
<!-- Generator: Adobe Illustrator 16.0.0, SVG Export Plug-In . SVG Version: 6.00 Build 0)  -->
<!DOCTYPE svg PUBLIC "-//W3C//DTD SVG 1.1//EN" "http://www.w3.org/Graphics/SVG/1.1/DTD/svg11.dtd">
<svg version="1.1" id="Шар_1" xmlns="http://www.w3.org/2000/svg" xmlns:xlink="http://www.w3.org/1999/xlink" x="0px" y="0px"
	 width="51px" height="53px" viewBox="0 0 51 53" enable-background="new 0 0 51 53" xml:space="preserve">
<g>
	<path fill="#00AEEF" d="M47.252,19.271H3.749c-1.004,0-1.856,0.352-2.561,1.057c-0.702,0.701-1.054,1.554-1.054,2.559v7.227
		c0,1.005,0.352,1.857,1.054,2.559c0.701,0.704,1.557,1.057,2.561,1.057h43.503c1.003,0,1.855-0.353,2.561-1.057
		c0.701-0.701,1.053-1.554,1.053-2.559v-7.227c0-1.005-0.352-1.857-1.056-2.559C49.107,19.623,48.255,19.271,47.252,19.271
		L47.252,19.271z M47.252,19.271"/>
	<path fill="#00AEEF" d="M47.252,38.544H3.749c-1.004,0-1.856,0.353-2.561,1.057c-0.702,0.701-1.054,1.554-1.054,2.558v7.228
		c0,1.004,0.352,1.856,1.054,2.561C1.89,52.648,2.745,53,3.749,53h43.503c1.003,0,1.855-0.352,2.561-1.054
		c0.701-0.704,1.053-1.557,1.053-2.561v-7.228c0-1.004-0.352-1.856-1.056-2.558C49.107,38.896,48.255,38.544,47.252,38.544
		L47.252,38.544z M47.252,38.544"/>
	<path fill="#00AEEF" d="M49.81,1.054C49.107,0.353,48.255,0,47.252,0H3.749C2.745,0,1.893,0.353,1.188,1.054
		C0.486,1.757,0.135,2.61,0.135,3.614v7.228c0,1.004,0.352,1.856,1.054,2.559c0.701,0.704,1.557,1.055,2.561,1.055h43.503
		c1.003,0,1.855-0.351,2.561-1.055c0.701-0.702,1.053-1.555,1.053-2.559V3.614C50.865,2.61,50.514,1.757,49.81,1.054L49.81,1.054z
		 M49.81,1.054"/>
</g>
</svg>
