<svg width="30" height="30" viewBox="0 0 30 30" fill="none" xmlns="http://www.w3.org/2000/svg">
<path d="M1.75781 13.6992V13.1836C1.75781 5.84766 7.82227 0 15.0586 0C22.3477 0 28.2422 5.89453 28.2422 13.1836V13.6992C29.3672 14.7422 30 16.1777 30 17.6953C30 20.6016 27.6328 22.9688 24.7266 22.9688C23.9004 22.9688 24.4043 22.9688 22.0898 22.9688C20.6367 22.9688 19.4531 21.7852 19.4531 20.332V14.9414C19.4531 13.4883 20.6367 12.3047 22.0898 12.3047H22.9219C22.4824 8.35547 19.125 5.27344 15.0586 5.27344C10.9336 5.27344 7.52344 8.35547 7.08398 12.3047H7.91016C9.36328 12.3047 10.5469 13.4883 10.5469 14.9414V20.332C10.5469 21.7852 9.36328 22.9688 7.91016 22.9688H7.03125V23.8477C7.03125 25.3008 8.21484 26.4844 9.66797 26.4844H10.6992C11.0625 25.459 12.041 24.7266 13.1836 24.7266H15.0586C16.5117 24.7266 17.6953 25.9102 17.6953 27.3633C17.6953 28.8164 16.5117 30 15.0586 30H13.1836C12.0352 30 11.0625 29.2676 10.6992 28.2422H9.66797C7.24219 28.2422 5.27344 26.2734 5.27344 23.8477V22.9688C2.36719 22.9688 0 20.6016 0 17.6953C0 16.1777 0.626953 14.7422 1.75781 13.6992ZM13.1836 28.2422H15.0586C15.5449 28.2422 15.9375 27.8496 15.9375 27.3633C15.9375 26.877 15.5449 26.4844 15.0586 26.4844H13.1836C12.6973 26.4844 12.3047 26.877 12.3047 27.3633C12.3047 27.8496 12.6973 28.2422 13.1836 28.2422ZM24.7266 21.2109C26.666 21.2109 28.2422 19.6348 28.2422 17.6953C28.2422 15.7266 26.6309 14.0625 24.7266 14.0625V21.2109ZM22.0898 14.0625C21.6035 14.0625 21.2109 14.4551 21.2109 14.9414V20.332C21.2109 20.8184 21.6035 21.2109 22.0898 21.2109H22.9688V14.0625H22.0898ZM7.03125 21.2109H7.91016C8.39648 21.2109 8.78906 20.8184 8.78906 20.332V14.9414C8.78906 14.4551 8.39648 14.0625 7.91016 14.0625H7.03125V21.2109ZM5.31445 12.3047C5.76562 7.40625 9.97266 3.51562 15.0586 3.51562C20.0918 3.51562 24.2402 7.38281 24.6855 12.3047H24.7266C25.3301 12.3047 25.916 12.4102 26.4727 12.6094C26.1738 6.57422 21.1641 1.75781 15.0586 1.75781C8.88867 1.75781 3.83203 6.57422 3.52734 12.6094C4.08398 12.4102 4.66992 12.3047 5.27344 12.3047H5.31445ZM5.27344 21.2109V14.0625C3.36914 14.0625 1.75781 15.7266 1.75781 17.6953C1.75781 19.6348 3.33398 21.2109 5.27344 21.2109Z" fill="#00AFF2"/>
</svg>
