<svg width="25" height="18" viewBox="0 0 25 18" fill="none" xmlns="http://www.w3.org/2000/svg">
<path d="M22.3216 0H2.67838C1.19795 0 0 1.19795 0 2.67838V15.1758C0 16.6562 1.19795 17.8542 2.67838 17.8542H22.3216C23.8021 17.8542 25 16.6562 25 15.1758V2.67838C25 1.19795 23.7968 0 22.3216 0ZM23.2109 15.1758C23.2109 15.6675 22.8134 16.0703 22.3164 16.0703H2.67838C2.18665 16.0703 1.78385 15.6727 1.78385 15.1758V9.819H23.2109V15.1758ZM23.2109 8.03515H1.78385V6.25131H23.2109V8.03515ZM23.2109 4.46223H1.78385V2.67838C1.78385 2.18665 2.18142 1.78385 2.67838 1.78385H22.3216C22.8134 1.78385 23.2162 2.18142 23.2162 2.67838L23.2109 4.46223Z" fill="#00AFF2"/>
<path d="M20.5329 11.6082H16.96C16.4682 11.6082 16.0654 12.0057 16.0654 12.5027C16.0654 12.9997 16.463 13.3972 16.96 13.3972H20.5329C21.0246 13.3972 21.4274 12.9997 21.4274 12.5027C21.4274 12.0057 21.0299 11.6082 20.5329 11.6082Z" fill="#00AFF2"/>
</svg>
