<svg width="25" height="23" viewBox="0 0 25 23" fill="none" xmlns="http://www.w3.org/2000/svg">
<path fill-rule="evenodd" clip-rule="evenodd" d="M1.98723 19.5003C1.98723 20.9133 3.11886 22.0438 4.53339 22.0438C5.94793 22.0438 7.07956 20.9133 7.07956 19.5003C7.07956 19.2176 7.02297 18.935 6.96639 18.7089H13.9659C13.8527 18.9916 13.8527 19.2176 13.8527 19.5003C13.8527 20.9133 14.9844 22.0438 16.3989 22.0438C17.8134 22.0438 18.9451 20.9133 18.9451 19.5003C18.9451 19.2176 18.8885 18.935 18.8319 18.7089H19.1714C20.5859 18.7089 21.7741 17.5785 21.7741 16.1089C21.7741 15.0915 21.1517 14.1871 20.2464 13.735L21.2649 4.35223C21.3781 2.82612 22.6229 1.69567 24.1506 1.69567C24.6032 1.69567 24.9993 1.35654 24.9993 0.847837C24.9993 0.395657 24.6032 0 24.1506 0C21.7741 0 19.7938 1.7522 19.5109 4.06962L18.4924 13.4523H5.22707L5.21947 13.4523C4.42732 13.4523 3.74834 12.8871 3.52201 12.0958L2.32149 6.3873H18.7073V4.6882H1.29139C1.23409 4.68288 1.17595 4.68276 1.11768 4.6882H0V6.3873H0.557187L1.88114 12.4914C2.05088 13.2827 2.50354 13.961 3.06936 14.4132C3.64375 14.8827 4.31452 15.1114 5.03719 15.1439C5.06355 15.1466 5.09018 15.148 5.11701 15.148H19.0582C19.5109 15.148 19.907 15.5437 19.907 15.9959C19.907 16.448 19.5109 16.8437 19.0582 16.8437H4.47681C3.11886 16.9567 1.98723 18.0872 1.98723 19.5003ZM15.4936 19.5003C15.4936 19.0481 15.8331 18.7089 16.2857 18.7089C16.7384 18.7089 17.0779 19.0481 17.0779 19.5003C17.0779 19.9524 16.795 20.3481 16.3423 20.3481C15.8897 20.3481 15.4936 19.9524 15.4936 19.5003ZM3.74125 19.5003C3.74125 19.0481 4.08074 18.7089 4.53339 18.7089C4.98604 18.7089 5.32553 19.0481 5.32553 19.5003C5.32553 19.9524 4.98604 20.3481 4.53339 20.3481C4.08074 20.3481 3.74125 19.9524 3.74125 19.5003Z" fill="#00AFF2"/>
</svg>
