<svg width="18" height="21" viewBox="0 0 18 21" fill="none" xmlns="http://www.w3.org/2000/svg">
<path d="M17.7682 8.00046L9.24378 0.187406C8.96403 -0.0683666 8.54041 -0.0603737 8.26865 0.199395L0.215808 8.01645C0.0799289 8.14833 0 8.33616 0 8.52799V19.754C0 20.1417 0.319716 20.4614 0.711368 20.4614H6.63011C7.02176 20.4614 7.34147 20.1417 7.34147 19.75V14.5426H10.6585V19.754C10.6585 20.1457 10.9782 20.4654 11.3699 20.4654H17.2886C17.6803 20.4654 18 20.1457 18 19.754V8.524C18 8.32417 17.9161 8.13634 17.7682 8.00046ZM16.5773 19.0386H12.0773V13.8313C12.0773 13.4396 11.7575 13.1199 11.3659 13.1199H6.63011C6.23845 13.1199 5.91874 13.4396 5.91874 13.8313V19.0426H1.42274V8.82773L8.7762 1.68607L16.5773 8.83572V19.0386Z" fill="#00AFF2"/>
</svg>
