<svg width="38" height="47" viewBox="0 0 38 47" fill="none" xmlns="http://www.w3.org/2000/svg">
<path d="M16.45 16.4501C16.45 15.1478 15.4023 14.1001 14.1 14.1001C12.7977 14.1001 11.75 15.1478 11.75 16.4501H13.3167C13.3167 16.0193 13.6692 15.6668 14.1 15.6668C14.5308 15.6668 14.8833 16.0193 14.8833 16.4501H16.45Z" fill="black"/>
<path d="M23.5 15.6668C23.9309 15.6668 24.2834 16.0193 24.2834 16.4501H25.85C25.85 15.1478 24.8023 14.1001 23.5 14.1001C22.1977 14.1001 21.15 15.1478 21.15 16.4501H22.7167C22.7167 16.0193 23.0692 15.6668 23.5 15.6668Z" fill="black"/>
<path d="M32.3419 32.479L22.7167 29.9429V27.4069C25.9969 26.036 28.3371 23.0496 28.8756 19.5246C29.6687 19.3777 30.4031 18.9958 30.971 18.4279C31.7054 17.6935 32.1167 16.6948 32.1167 15.6667V8.61667C32.1069 4.72937 28.954 1.57646 25.0667 1.56667H22.6285C21.6102 0.558125 20.2296 0 18.8 0H12.5333C8.64604 0.00979167 5.49312 3.16271 5.48333 7.05V15.6667C5.48333 17.576 6.86396 19.2015 8.74396 19.5246C9.27271 23.0496 11.6031 26.036 14.8833 27.4167V29.9429L5.24833 32.4692C2.15417 33.3015 0.00979167 36.1019 0 39.3037V46.2167C0 46.6475 0.3525 47 0.783333 47H36.8167C37.2475 47 37.6 46.6475 37.6 46.2167V39.3037C37.5902 36.1019 35.436 33.3015 32.3419 32.479ZM27.1621 37.081L23.7644 38.0504L25.4877 32.5867L27.1621 37.081ZM29.8646 17.3313C29.61 17.576 29.3065 17.7719 28.9833 17.8894V13.4537C30.2073 13.8944 30.8535 15.2358 30.4129 16.4598C30.2954 16.7829 30.1094 17.0767 29.8646 17.3313ZM25.0667 3.13333C28.0923 3.13333 30.55 5.59104 30.55 8.61667V12.5431C29.9527 12.0927 29.2379 11.8185 28.4937 11.7598L24.2833 8.25438V5.48333C24.2833 4.67063 24.0973 3.86771 23.7546 3.13333H25.0667ZM8.61667 17.8796C8.29354 17.7621 7.99 17.576 7.73542 17.341C6.815 16.4206 6.815 14.9323 7.73542 14.0217C7.98021 13.7769 8.28375 13.581 8.61667 13.4635V17.8796ZM7.05 12.5529V7.05C7.05 4.02437 9.50771 1.56667 12.5333 1.56667H18.8C20.964 1.56667 22.7167 3.31938 22.7167 5.48333V8.01938L9.23354 11.7696C8.44042 11.799 7.67667 12.0731 7.05 12.5529ZM10.1833 18.0167V13.1306L23.314 9.47833L27.4167 12.9054V18.0167C27.4167 22.7754 23.5587 26.6333 18.8 26.6333C14.0412 26.6333 10.1833 22.7754 10.1833 18.0167ZM12.1123 32.5965L13.8356 38.0602L10.4379 37.0908L12.1123 32.5965ZM1.56667 45.4333V39.3037C1.56667 36.8167 3.24104 34.6429 5.64979 33.9967L10.389 32.7531L8.66562 37.3258C8.58729 37.5315 8.60687 37.7567 8.70479 37.9525C8.80271 38.1483 8.97896 38.2952 9.19438 38.354L13.209 39.5094L10.4771 41.6929C10.2715 41.8496 10.1637 42.0944 10.1833 42.349C10.2029 42.6035 10.34 42.8288 10.5554 42.9658L14.5015 45.4333H1.56667ZM12.3179 42.2217L14.57 40.4102L15.8429 44.4248L12.3179 42.2217ZM18.0167 45.4333H17.8013L13.5419 31.9208L15.4317 31.4215L18.0167 34.0065V45.4333ZM16.45 30.2269V27.916C17.9971 28.2881 19.6029 28.2881 21.15 27.916V30.2269L18.8 32.5769L16.45 30.2269ZM19.5833 45.4333V34.0065L22.1683 31.4215L24.0581 31.9208L19.7987 45.4333H19.5833ZM23.0202 40.4102L25.2723 42.2217L21.7473 44.4248L23.0202 40.4102ZM36.0333 45.4333H23.0985L27.0446 42.9658C27.26 42.8288 27.3971 42.6035 27.4167 42.349C27.4362 42.0944 27.3187 41.8496 27.1229 41.6929L24.4008 39.5094L28.4154 38.354C28.6308 38.2952 28.8071 38.1483 28.905 37.9525C29.0029 37.7567 29.0225 37.5315 28.9442 37.3258L27.2208 32.7531L31.9502 33.9967C34.359 34.6331 36.0333 36.8069 36.0431 39.3037V45.4333H36.0333Z" fill="black"/>
<path d="M22.7166 21.1499H21.15C21.15 21.3457 20.3177 21.9332 18.8 21.9332C17.2823 21.9332 16.45 21.3457 16.45 21.1499H14.8833C14.8833 22.4914 16.5675 23.4999 18.8 23.4999C21.0325 23.4999 22.7166 22.4914 22.7166 21.1499Z" fill="black"/>
</svg>
