<svg width="38" height="47" viewBox="0 0 38 47" fill="none" xmlns="http://www.w3.org/2000/svg">
<path d="M14.1 16.45C14.5308 16.45 14.8833 16.8025 14.8833 17.2333H16.45C16.45 15.931 15.4023 14.8833 14.1 14.8833C12.7977 14.8833 11.75 15.931 11.75 17.2333H13.3167C13.3167 16.8025 13.6692 16.45 14.1 16.45Z" fill="black"/>
<path d="M23.5 16.45C23.9309 16.45 24.2834 16.8025 24.2834 17.2333H25.85C25.85 15.931 24.8023 14.8833 23.5 14.8833C22.1977 14.8833 21.15 15.931 21.15 17.2333H22.7167C22.7167 16.8025 23.0692 16.45 23.5 16.45Z" fill="black"/>
<path d="M32.3419 32.479L32.1167 32.4202V13.3167C32.1167 5.96313 26.1535 0 18.8 0C11.4465 0 5.48333 5.96313 5.48333 13.3167V32.4104L5.24833 32.4692C2.15417 33.3015 0.00979167 36.1019 0 39.3037V46.2167C0 46.6475 0.3525 47 0.783333 47H36.8167C37.2475 47 37.6 46.6475 37.6 46.2167V39.3037C37.5902 36.1019 35.436 33.3015 32.3419 32.479ZM22.7167 29.9429V27.4167C26.0067 26.036 28.3371 23.0398 28.856 19.5148C29.4729 19.4169 30.0506 19.1623 30.55 18.7804V32.009L22.7167 29.9429ZM24.2833 31.9796V34.4667H22.7167C22.2858 34.4667 21.9333 34.8192 21.9333 35.25V36.9929L19.926 35.7983L22.9125 31.6173L24.2833 31.9796ZM18.8 26.6333C14.0412 26.6333 10.1833 22.7754 10.1833 18.0167V12.8565L13.2187 9.82104C14.335 8.695 16.0192 8.36208 17.4781 8.96917L27.4167 13.0621V18.0167C27.4167 22.7754 23.5587 26.6333 18.8 26.6333ZM28.9833 17.8698V13.4635C29.3065 13.581 29.61 13.7671 29.8646 14.0021C30.3052 14.4427 30.55 15.0498 30.55 15.6667C30.55 16.6556 29.9135 17.5369 28.9833 17.8698ZM18.8 1.56667C24.9785 1.55688 30.1094 6.345 30.5108 12.5138C29.894 12.0633 29.1596 11.8088 28.4056 11.7696L18.0754 7.52C17.8013 7.4025 17.5173 7.31437 17.2333 7.25563V4.7H15.6667V7.10875C15.1281 7.13812 14.5994 7.24583 14.1 7.44167V4.7H12.5333V8.35229C12.3962 8.46979 12.2396 8.5775 12.1123 8.71458L9.03771 11.7892C8.33271 11.8577 7.65708 12.1123 7.08917 12.5235C7.51021 6.35479 12.6312 1.57646 18.8 1.56667ZM7.73542 14.0021C7.99 13.7573 8.29354 13.5712 8.61667 13.4537V17.8698C7.39271 17.439 6.75625 16.0975 7.18708 14.8735C7.30458 14.5504 7.49062 14.2567 7.73542 14.0021ZM7.05 18.7804C7.54937 19.1623 8.12708 19.4071 8.74396 19.5148C9.27271 23.0398 11.5933 26.036 14.8833 27.4167V29.9429L7.05 31.9992V18.7804ZM14.8833 34.4667H13.3167V31.9796L14.6875 31.6173L17.674 35.7983L15.6667 36.9929V35.25C15.6667 34.8192 15.3142 34.4667 14.8833 34.4667ZM18.0167 45.4333H10.9667C9.23354 45.4333 7.83333 44.0331 7.83333 42.3C7.83333 41.311 8.29354 40.3808 9.08667 39.7933L8.14667 38.54C6.07083 40.0871 5.64979 43.0246 7.19687 45.1004C7.285 45.2179 7.37313 45.3256 7.47104 45.4333H1.56667V39.3037C1.56667 36.8167 3.24104 34.6429 5.64979 33.9967L11.75 32.3908V35.25C11.75 35.6808 12.1025 36.0333 12.5333 36.0333H14.1V38.3833C14.1 38.6673 14.2567 38.9317 14.5015 39.0688C14.619 39.1373 14.7462 39.1765 14.8833 39.1667C15.0204 39.1667 15.1575 39.1275 15.2848 39.059L18.0167 37.4238V45.4333ZM16.2346 31.0788C16.3717 30.9319 16.45 30.7458 16.45 30.55V27.916C17.9971 28.2881 19.6029 28.2881 21.15 27.916V30.55C21.15 30.7458 21.2283 30.9417 21.3654 31.0788L18.8 34.6821L16.2346 31.0788ZM36.0333 45.4333H30.129C31.8621 43.5142 31.7054 40.5473 29.7862 38.8142C29.6785 38.7163 29.5708 38.6281 29.4533 38.54L28.5133 39.7933C29.894 40.8312 30.1779 42.7994 29.14 44.18C28.5525 44.9731 27.6223 45.4333 26.6333 45.4333H19.5833V37.4238L22.3152 39.059C22.6873 39.2842 23.1671 39.1569 23.3923 38.7848C23.4608 38.6673 23.5 38.5302 23.5 38.3833V36.0333H25.0667C25.4975 36.0333 25.85 35.6808 25.85 35.25V32.3908L31.9404 33.9967C34.3492 34.6331 36.0235 36.8069 36.0333 39.3037V45.4333Z" fill="black"/>
<path d="M18.8 24.2831C20.1023 24.2831 21.15 23.2354 21.15 21.9331H19.5833C19.5833 22.3639 19.2308 22.7164 18.8 22.7164C18.3692 22.7164 18.0167 22.3639 18.0167 21.9331H16.45C16.45 23.2354 17.4977 24.2831 18.8 24.2831Z" fill="black"/>
</svg>
