<svg width="15" height="20" viewBox="0 0 15 20" fill="none" xmlns="http://www.w3.org/2000/svg">
<path d="M0 7.16273C0 2.89291 3.16735 0 7.07327 0C10.9792 0 14.1465 2.89291 14.1465 7.16273C14.1465 12.1419 7.07327 20 7.07327 20C7.07327 20 0 12.0028 0 7.16273Z" fill="#00AFF2"/>
<path d="M1.91602 7.32958C1.91602 4.21414 4.21696 2.1001 7.07183 2.1001C9.9267 2.1001 12.2134 4.22805 12.2134 7.32958C12.2134 11.0987 7.05762 16.6898 7.05762 16.6898C7.05762 16.6898 1.91602 10.7927 1.91602 7.32958Z" fill="#ECF7FB"/>
<path d="M7.07467 9.5133C8.48664 9.5133 9.63127 8.39246 9.63127 7.00982C9.63127 5.62719 8.48664 4.50635 7.07467 4.50635C5.6627 4.50635 4.51807 5.62719 4.51807 7.00982C4.51807 8.39246 5.6627 9.5133 7.07467 9.5133Z" fill="#00AFF2"/>
</svg>
