<svg width="23" height="23" viewBox="0 0 23 23" fill="none" xmlns="http://www.w3.org/2000/svg">
<path d="M11.9069 22.0867C5.96847 22.0867 1.17672 17.2999 1.19537 11.3584C1.21401 5.46341 5.99643 0.70459 11.8975 0.70459C17.7893 0.70459 22.5718 5.47273 22.5997 11.3584C22.6277 17.2534 17.808 22.0867 11.9069 22.0867ZM19.1225 17.6259C22.0031 14.6085 22.6463 8.79738 18.8241 4.76496C15.1604 0.890845 8.7652 0.844281 5.05486 4.66252C1.1674 8.67632 1.73607 14.5434 4.66332 17.6352C8.41095 13.0161 15.3096 12.9416 19.1225 17.6259ZM5.50234 18.4827C8.96097 21.8539 14.974 21.7701 18.2928 18.4547C14.9646 13.938 8.26179 14.4316 5.50234 18.4827Z" fill="#FD9710" stroke="#FD9710" stroke-width="0.5"/>
<path d="M7.33838 8.7314C7.33838 6.22655 9.38911 4.17798 11.8966 4.17798C14.3948 4.17798 16.4641 6.24517 16.4548 8.7314C16.4455 11.2642 14.4041 13.3034 11.8686 13.3034C9.37979 13.2941 7.33838 11.2456 7.33838 8.7314ZM11.8593 12.186C13.7609 12.1953 15.3455 10.6403 15.3549 8.75933C15.3642 6.89699 13.7982 5.30469 11.9432 5.28607C10.0043 5.27676 8.43832 6.81319 8.42899 8.74071C8.41967 10.5937 9.99501 12.1767 11.8593 12.186Z" fill="#FD9710" stroke="#FD9710" stroke-width="0.5"/>
</svg>
