<svg width="20" height="19" viewBox="0 0 20 19" fill="none" xmlns="http://www.w3.org/2000/svg">
<path d="M18.821 17.3179L17.5536 18.5795C17.3423 18.7897 16.4974 19 16.4974 19C12.2726 19 8.0479 17.3179 5.09058 14.3741C2.13326 11.2201 0.443359 7.22497 0.443359 3.0196C0.443359 3.0196 0.654596 2.38879 0.865834 2.17852L2.13326 0.916913C2.76697 0.0758396 3.61192 -0.134429 4.24563 0.0758396H4.45686C5.09058 0.286108 5.72429 1.12718 5.93552 1.75799L6.78047 4.28121C6.99171 4.91201 6.78047 5.96336 6.14676 6.38389L5.30181 7.43524C6.14676 10.5893 8.89284 13.3228 12.0614 14.1638L12.9064 13.3228C13.5401 12.6919 14.385 12.4817 15.23 12.6919L17.7648 13.3228C18.3985 13.533 19.0322 14.1638 19.2435 14.7946V15.0049C19.6659 15.846 19.4547 16.687 18.821 17.3179Z" fill="#00AFF2"/>
</svg>
