<svg width="20" height="19" viewBox="0 0 20 19" fill="none" xmlns="http://www.w3.org/2000/svg">
<path d="M18.3776 17.3179L17.1102 18.5795C16.899 18.7897 16.054 19 16.054 19C11.8293 19 7.60454 17.3179 4.64722 14.3741C1.6899 11.2201 0 7.22497 0 3.0196C0 3.0196 0.211237 2.38879 0.422474 2.17852L1.6899 0.916913C2.32361 0.0758396 3.16856 -0.134429 3.80227 0.0758396H4.01351C4.64722 0.286108 5.28093 1.12718 5.49217 1.75799L6.33711 4.28121C6.54835 4.91201 6.33711 5.96336 5.7034 6.38389L4.85845 7.43524C5.7034 10.5893 8.44948 13.3228 11.618 14.1638L12.463 13.3228C13.0967 12.6919 13.9417 12.4817 14.7866 12.6919L17.3214 13.3228C17.9552 13.533 18.5889 14.1638 18.8001 14.7946V15.0049C19.2226 15.846 19.0113 16.687 18.3776 17.3179Z" fill="#555555"/>
</svg>
