<svg width="13" height="17" viewBox="0 0 13 17" fill="none" xmlns="http://www.w3.org/2000/svg">
<path d="M0.281006 6.08832C0.281006 2.45897 2.97325 0 6.29329 0C9.61333 0 12.3056 2.45897 12.3056 6.08832C12.3056 10.3206 6.29329 17 6.29329 17C6.29329 17 0.281006 10.2024 0.281006 6.08832Z" fill="#FD9710"/>
<path d="M1.91089 6.23022C1.91089 3.5821 3.86669 1.78516 6.29333 1.78516C8.71997 1.78516 10.6637 3.59392 10.6637 6.23022C10.6637 9.43397 6.28126 14.1864 6.28126 14.1864C6.28126 14.1864 1.91089 9.17389 1.91089 6.23022Z" fill="white"/>
<path d="M6.29323 8.08623C7.4934 8.08623 8.46634 7.13351 8.46634 5.95828C8.46634 4.78304 7.4934 3.83032 6.29323 3.83032C5.09305 3.83032 4.12012 4.78304 4.12012 5.95828C4.12012 7.13351 5.09305 8.08623 6.29323 8.08623Z" fill="#FD9710"/>
</svg>
