<svg width="35" height="35" viewBox="0 0 35 35" fill="none" xmlns="http://www.w3.org/2000/svg">
<path fill-rule="evenodd" clip-rule="evenodd" d="M30.8301 10.3115H31.9238C33.6191 10.3115 35 11.6909 35 13.3845V25.6764C35 27.3699 33.6191 28.7493 31.9238 28.7493H26.7285V33.9392C26.7285 34.506 26.2705 34.9635 25.7031 34.9635H9.29688C8.72949 34.9635 8.27148 34.506 8.27148 33.9392V28.7493H3.07617C1.38086 28.7493 0 27.3699 0 25.6764V13.3845C0 11.6909 1.38086 10.3115 3.07617 10.3115H4.16992V8.97307C4.16992 7.4161 5.44141 6.14594 7 6.14594H8.27148V1.02432C8.27148 0.457531 8.72949 0 9.29688 0H19.5508H19.5645C19.8379 0.00682882 20.0908 0.11609 20.2754 0.300468L26.127 6.14594H28C29.5586 6.14594 30.8301 7.4161 30.8301 8.97307V10.3115ZM28 8.19458H26.7285V10.3115H28.7793V8.97307C28.7793 8.54285 28.4307 8.19458 28 8.19458ZM23.2285 6.14594L20.5762 3.49635V6.14594H23.2285ZM10.3223 2.04865V11.3358V12.3602H24.6777V11.3358V8.19458H23.6523H19.5508C18.9834 8.19458 18.5254 7.73705 18.5254 7.17026V2.04865H10.3223ZM7 8.19458C6.56934 8.19458 6.2207 8.54285 6.2207 8.97307V10.3115H8.27148V8.19458H7ZM10.3223 32.9149H24.6777V22.6034H10.3223V32.9149ZM31.9238 26.7007C32.4912 26.7007 32.9492 26.2431 32.9492 25.6764V13.3845C32.9492 12.8177 32.4912 12.3602 31.9238 12.3602H26.7285V13.3845C26.7285 13.9513 26.2705 14.4088 25.7031 14.4088H9.29688C8.72949 14.4088 8.27148 13.9513 8.27148 13.3845V12.3602H3.07617C2.50879 12.3602 2.05078 12.8177 2.05078 13.3845V25.6764C2.05078 26.2431 2.50879 26.7007 3.07617 26.7007H8.27148V22.6034H7.24609C6.67871 22.6034 6.2207 22.1459 6.2207 21.5791C6.2207 21.0123 6.67871 20.5547 7.24609 20.5547H9.29688H25.7031H27.7539C28.3213 20.5547 28.7793 21.0123 28.7793 21.5791C28.7793 22.1459 28.3213 22.6034 27.7539 22.6034H26.7285V26.7007H31.9238ZM27.7539 16.4575H29.8047C30.372 16.4575 30.83 16.9151 30.83 17.4818C30.83 18.0486 30.372 18.5062 29.8047 18.5062H27.7539C27.1865 18.5062 26.7285 18.0486 26.7285 17.4818C26.7285 16.9151 27.1865 16.4575 27.7539 16.4575ZM21.6016 24.651H13.3984C12.8311 24.651 12.373 25.1086 12.373 25.6754C12.373 26.2421 12.8311 26.6997 13.3984 26.6997H21.6016C22.1689 26.6997 22.627 26.2421 22.627 25.6754C22.627 25.1086 22.1689 24.651 21.6016 24.651ZM13.3984 28.7483H21.6016C22.1689 28.7483 22.627 29.2059 22.627 29.7726C22.627 30.3394 22.1689 30.797 21.6016 30.797H13.3984C12.8311 30.797 12.373 30.3394 12.373 29.7726C12.373 29.2059 12.8311 28.7483 13.3984 28.7483Z" fill="#333333"/>
</svg>
