<svg width="22" height="22" viewBox="0 0 22 22" fill="none" xmlns="http://www.w3.org/2000/svg">
<path d="M0 11C0 9.47967 0.268293 8.04878 0.894309 6.70731C1.43089 5.36585 2.23577 4.20325 3.21951 3.21951C4.20325 2.23577 5.36585 1.43089 6.70732 0.894309C8.04878 0.357723 9.47968 0 11 0C12.5203 0 13.9512 0.268293 15.2927 0.894309C16.6341 1.43089 17.7967 2.23577 18.7805 3.21951C19.7642 4.20325 20.5691 5.36585 21.1057 6.70731C21.7317 8.04878 22 9.47967 22 11C22 12.5203 21.7317 13.9512 21.1057 15.2927C20.4797 16.6341 19.7642 17.7967 18.7805 18.7805C17.7967 19.7642 16.6341 20.5691 15.2927 21.1057C13.9512 21.6423 12.5203 22 11 22C9.47968 22 8.04878 21.7317 6.70732 21.1057C5.36585 20.5691 4.20325 19.7642 3.21951 18.7805C2.23577 17.7967 1.43089 16.6341 0.894309 15.2927C0.357723 13.9512 0 12.5203 0 11ZM6.0813 11.0894C6.0813 11.8049 6.17073 12.4309 6.52846 13.0569C6.79675 13.6829 7.15447 14.2195 7.60162 14.6667C8.04878 15.1138 8.58537 15.4715 9.21138 15.7398C9.8374 16.0081 10.4634 16.0976 11.1789 16.0976C11.8943 16.0976 12.5203 16.0081 13.1463 15.7398C13.7724 15.4715 14.3089 15.1138 14.7561 14.6667C15.2032 14.2195 15.561 13.6829 15.8293 13.0569C16.0976 12.4309 16.187 11.8049 16.187 11.0894C16.187 10.374 16.0976 9.74797 15.8293 9.12195C15.561 8.49593 15.2032 7.95935 14.7561 7.51219C14.3089 7.06504 13.7724 6.70732 13.1463 6.43902C12.5203 6.17073 11.8943 6.0813 11.1789 6.0813C10.4634 6.0813 9.8374 6.26016 9.21138 6.43902C8.58537 6.70732 8.04878 7.06504 7.60162 7.51219C7.15447 7.95935 6.79675 8.49593 6.52846 9.12195C6.26016 9.74797 6.0813 10.374 6.0813 11.0894Z" fill="#D3E8F5"/>
</svg>
