<svg width="47" height="44" viewBox="0 0 47 44" fill="none" xmlns="http://www.w3.org/2000/svg">
<path d="M40.941 16.8341L30.0317 24.7421L34.1644 37.54C34.4441 38.3998 33.8576 38.9013 33.6681 39.0356C33.4786 39.17 32.8109 39.564 32.08 39.0356L21.1616 31.1366L10.135 39.0446C9.39506 39.573 8.72733 39.1789 8.54686 39.0446C8.35737 38.9103 7.77084 38.3998 8.05959 37.54L12.3006 24.7511L1.28299 16.8431C0.54307 16.3147 0.714515 15.5624 0.786703 15.3385C0.85889 15.1236 1.15666 14.4071 2.07705 14.4071H15.6844L19.8171 1.61817C20.0969 0.758414 20.8729 0.686768 21.0985 0.686768H21.1075C21.3421 0.686768 22.1091 0.758414 22.3978 1.60922L26.6479 14.4071H40.1469C41.0583 14.4071 41.3651 15.1146 41.4373 15.3296C41.5004 15.5534 41.6719 16.3057 40.941 16.8341Z" fill="white"/>
</svg>
