<svg width="48" height="44" viewBox="0 0 48 44" fill="none" xmlns="http://www.w3.org/2000/svg">
<path d="M46.7991 16.5056C46.2396 14.8129 44.7327 13.7293 42.937 13.7293H31.3961L27.7596 2.76735C27.2002 1.08366 25.6933 0 23.9066 0C23.8976 0 23.8976 0 23.8886 0C22.0929 0.00895583 20.586 1.10157 20.0356 2.80318L16.5074 13.7293H4.86716C3.0715 13.7293 1.55556 14.8219 1.00513 16.5146C0.454702 18.2072 1.0322 19.9805 2.494 21.0193L11.9054 27.772L8.27802 38.6982C7.71857 40.3908 8.28705 42.1641 9.73982 43.2119C10.4707 43.7403 11.3009 44 12.1401 44C12.9702 44 13.7913 43.7403 14.5222 43.2208L23.9517 36.4502L33.2729 43.2029C34.7167 44.2508 36.5936 44.2597 38.0463 43.2119C39.4991 42.1641 40.0856 40.4087 39.5352 38.7161L35.998 27.772L45.3373 21.0014C46.781 19.9625 47.3495 18.1893 46.7991 16.5056Z" fill="#FDE700"/>
<path d="M43.7409 18.8341L32.8315 26.7421L36.9643 39.54C37.244 40.3998 36.6575 40.9013 36.468 41.0356C36.2785 41.17 35.6107 41.564 34.8798 41.0356L23.9615 33.1366L12.9348 41.0446C12.1949 41.573 11.5272 41.1789 11.3467 41.0446C11.1572 40.9103 10.5707 40.3998 10.8595 39.54L15.1005 26.7511L4.08286 18.8431C3.34294 18.3147 3.51438 17.5624 3.58657 17.3385C3.65876 17.1236 3.95653 16.4071 4.87692 16.4071H18.4843L22.617 3.61817C22.8967 2.75841 23.6727 2.68677 23.8983 2.68677H23.9073C24.142 2.68677 24.9089 2.75841 25.1977 3.60922L29.4477 16.4071H42.9468C43.8582 16.4071 44.165 17.1146 44.2371 17.3296C44.3003 17.5534 44.4718 18.3057 43.7409 18.8341Z" fill="white"/>
</svg>
