<svg width="20" height="20" viewBox="0 0 20 20" fill="none" xmlns="http://www.w3.org/2000/svg" style="display: none;">
<symbol id="star"  viewBox="0 0 50 50">
<path d="M45.9991 16.5056C45.4396 14.8129 43.9327 13.7293 42.1371 13.7293H30.5961L26.9596 2.76735C26.4002 1.08366 24.8933 0 23.1066 0C23.0976 0 23.0976 0 23.0886 0C21.2929 0.00895583 19.786 1.10157 19.2356 2.80318L15.7074 13.7293H4.06718C2.27151 13.7293 0.755574 14.8219 0.205144 16.5146C-0.345285 18.2072 0.232215 19.9805 1.69401 21.0193L11.1055 27.772L7.47804 38.6982C6.91858 40.3908 7.48706 42.1641 8.93983 43.2119C9.67073 43.7403 10.5009 44 11.3401 44C12.1702 44 12.9914 43.7403 13.7223 43.2208L23.1517 36.4502L32.473 43.2029C33.9167 44.2508 35.7936 44.2597 37.2464 43.2119C38.6991 42.1641 39.2857 40.4087 38.7352 38.7161L35.198 27.772L44.5373 21.0014C45.981 19.9625 46.5495 18.1893 45.9991 16.5056Z" fill="#FDE700"/>
</svg>
