<svg width="17" height="17" viewBox="0 0 17 17" fill="none" xmlns="http://www.w3.org/2000/svg">
<path d="M11.7342 9.51972C12.388 8.54672 12.7697 7.37284 12.7697 6.11421C12.7697 2.74324 10.0354 0 6.67538 0C3.31537 0 0.581055 2.74324 0.581055 6.11421C0.581055 9.48519 3.31537 12.2284 6.67538 12.2284C7.95494 12.2284 9.14377 11.8298 10.1261 11.1518L14.9816 16.0043L16.599 14.3816L11.7342 9.51972ZM6.67538 10.5116C4.2633 10.5116 2.30173 8.54358 2.30173 6.12363C2.30173 3.70368 4.2633 1.73571 6.67538 1.73571C9.08746 1.73571 11.049 3.70368 11.049 6.12363C11.049 8.54358 9.08746 10.5116 6.67538 10.5116Z" fill="#FD9710"/>
</svg>
