<svg width="25" height="25" viewBox="0 0 25 25" fill="none" xmlns="http://www.w3.org/2000/svg">
<path d="M21.5311 3.84858C19.1725 1.38571 15.9091 -0.00521434 12.494 1.46904e-05C5.60113 -0.0104434 0.0104743 5.56893 1.46926e-05 12.4608C-0.00521511 15.8701 1.38591 19.133 3.84915 21.4913C3.85438 21.4966 3.85961 21.507 3.86484 21.5175C3.93805 21.5854 4.0165 21.6482 4.08972 21.7109C4.28845 21.8887 4.49241 22.0717 4.70161 22.2443C4.81666 22.3332 4.93172 22.4221 5.04677 22.5058C5.2455 22.6574 5.44424 22.8038 5.65343 22.9398C5.79463 23.0287 5.94107 23.1175 6.0875 23.2064C6.281 23.3215 6.47451 23.4417 6.67324 23.5463C6.84059 23.6352 7.01318 23.7137 7.18576 23.7921C7.37403 23.881 7.55708 23.9699 7.75058 24.0483C7.94408 24.1268 8.13758 24.1895 8.33109 24.2627C8.52459 24.3359 8.69194 24.3987 8.88022 24.4562C9.08941 24.5189 9.30906 24.566 9.52348 24.6235C9.70129 24.6653 9.87388 24.7176 10.0569 24.7542C10.3027 24.8013 10.5538 24.8327 10.8048 24.8693C10.9617 24.8902 11.1081 24.9216 11.265 24.9373C11.6729 24.9791 12.0861 25 12.5045 25C12.9229 25 13.3308 24.9791 13.7439 24.9373C13.9008 24.9216 14.0525 24.8902 14.2042 24.8693C14.4552 24.8379 14.7062 24.8065 14.952 24.7542C15.1298 24.7176 15.3076 24.6653 15.4855 24.6235C15.6999 24.5712 15.9143 24.5242 16.1287 24.4562C16.317 24.3987 16.4948 24.3307 16.6778 24.2627C16.8609 24.1947 17.0649 24.1268 17.2584 24.0483C17.4519 23.9699 17.6349 23.8758 17.8232 23.7921C17.9958 23.7084 18.1683 23.6352 18.3357 23.5463C18.5344 23.4417 18.7279 23.3215 18.9214 23.2064C19.0679 23.1175 19.2143 23.0339 19.3555 22.9398C19.5647 22.8038 19.7634 22.6522 19.9622 22.5058C20.0772 22.4169 20.1975 22.3384 20.3073 22.2443C20.5165 22.077 20.7205 21.894 20.9192 21.7109C20.9924 21.643 21.0709 21.5854 21.1441 21.5175C21.1493 21.5122 21.1546 21.5018 21.1598 21.4913C26.1281 16.7224 26.3007 8.82139 21.5311 3.84858ZM19.5229 20.5553C19.3607 20.6965 19.1934 20.8325 19.0208 20.9632C18.9214 21.0416 18.8221 21.1148 18.7175 21.188C18.5553 21.3031 18.3932 21.4181 18.2259 21.5227C18.1056 21.6011 17.9801 21.6743 17.8546 21.7475C17.6977 21.8364 17.5355 21.9253 17.3786 22.0142C17.2374 22.0874 17.091 22.1554 16.9446 22.2234C16.7981 22.2914 16.636 22.3646 16.4791 22.4273C16.3222 22.4901 16.1549 22.5528 15.9875 22.6051C15.8358 22.6574 15.6842 22.7097 15.5325 22.7567C15.3547 22.809 15.1664 22.8561 14.9834 22.8979C14.837 22.9293 14.6958 22.9711 14.5493 22.9973C14.3401 23.0391 14.1205 23.0653 13.9061 23.0966C13.7805 23.1123 13.6603 23.1332 13.5347 23.1489C13.1896 23.1803 12.8444 23.2012 12.494 23.2012C12.1436 23.2012 11.7984 23.1803 11.4533 23.1489C11.3278 23.1385 11.2075 23.1123 11.082 23.0966C10.8675 23.0653 10.6479 23.0391 10.4387 22.9973C10.2923 22.9711 10.1511 22.9293 10.0046 22.8979C9.82158 22.8509 9.63854 22.809 9.45549 22.7567C9.30383 22.7097 9.15217 22.6574 9.0005 22.6051C8.83315 22.5476 8.67102 22.4901 8.5089 22.4273C8.34678 22.3646 8.19511 22.2966 8.04345 22.2234C7.89178 22.1502 7.75058 22.0874 7.60937 22.0142C7.44725 21.9306 7.29036 21.8417 7.13346 21.7475C7.00795 21.6743 6.88243 21.6011 6.76215 21.5227C6.59479 21.4181 6.43267 21.3083 6.27055 21.188C6.16595 21.1148 6.06658 21.0364 5.96722 20.9632C5.79986 20.8325 5.62728 20.6965 5.46516 20.5553C5.42332 20.524 5.39194 20.4873 5.3501 20.456C5.39194 17.4179 7.34265 14.7406 10.219 13.768C11.6572 14.453 13.3255 14.453 14.7637 13.768C17.6401 14.7406 19.5908 17.4231 19.6327 20.456C19.6013 20.4873 19.5647 20.524 19.5229 20.5553ZM9.38228 7.15333C10.3498 5.43298 12.5254 4.82641 14.246 5.79378C15.9666 6.76115 16.5733 8.93642 15.6057 10.6568C15.2867 11.2267 14.816 11.6974 14.246 12.0163C14.2408 12.0163 14.2355 12.0163 14.2303 12.0216C13.995 12.1523 13.7439 12.2569 13.4824 12.3353C13.4354 12.351 13.3935 12.3667 13.3465 12.3771C13.2576 12.398 13.1634 12.419 13.0693 12.4346C12.8967 12.466 12.7189 12.4817 12.5463 12.4869H12.4469C12.2691 12.4817 12.0965 12.466 11.924 12.4346C11.8351 12.419 11.7409 12.4033 11.6468 12.3771C11.5997 12.3667 11.5579 12.3458 11.5108 12.3353C11.2493 12.2569 11.0035 12.1523 10.7629 12.0216L10.7473 12.0163C9.02665 11.049 8.41999 8.87368 9.38228 7.15333ZM21.2225 18.6833C20.6473 16.0113 18.8901 13.7471 16.4425 12.534C18.4403 10.3535 18.2991 6.97031 16.1183 4.96759C13.9374 2.96487 10.5538 3.11129 8.55074 5.29179C6.66801 7.34157 6.66801 10.4842 8.55074 12.534C6.10319 13.7524 4.34598 16.0165 3.7707 18.6833C0.350411 13.8622 1.48005 7.17947 6.30192 3.75969C11.1238 0.339902 17.8075 1.46937 21.2278 6.29054C22.5143 8.10501 23.2046 10.2698 23.2046 12.4922C23.2046 14.7145 22.5143 16.8793 21.2225 18.6833Z" fill="#00AFF2"/>
</svg>
