<svg width="20" height="20" viewBox="0 0 24 22" fill="none" xmlns="http://www.w3.org/2000/svg">
<path d="M23.7471 8.2528C23.4607 7.40647 22.6893 6.86465 21.7701 6.86465H15.8622L14.0007 1.38368C13.7143 0.541828 12.9429 0 12.0283 0C12.0237 0 12.0237 0 12.0191 0C11.0999 0.00447792 10.3285 0.550784 10.0467 1.40159L8.24065 6.86465H2.28196C1.36275 6.86465 0.586733 7.41095 0.304965 8.25728C0.0231979 9.1036 0.318823 9.99023 1.06712 10.5097L5.88489 13.886L4.02799 19.3491C3.74161 20.1954 4.03261 21.082 4.77629 21.6059C5.15044 21.8701 5.57541 22 6.00499 22C6.42995 22 6.85029 21.8701 7.22444 21.6104L12.0514 18.2251L16.823 21.6015C17.5621 22.1254 18.5229 22.1299 19.2665 21.6059C20.0102 21.082 20.3105 20.2044 20.0287 19.358L18.218 13.886L22.9988 10.5007C23.7379 9.98127 24.0289 9.09465 23.7471 8.2528Z" fill="#C4C4C4"/>
<path d="M22.1815 9.41694L16.597 13.3709L18.7125 19.7699C18.8557 20.1998 18.5555 20.4505 18.4585 20.5177C18.3615 20.5849 18.0197 20.7819 17.6455 20.5177L12.0563 16.5682L6.41176 20.5222C6.03299 20.7864 5.69117 20.5893 5.59879 20.5222C5.50179 20.455 5.20154 20.1998 5.34936 19.7699L7.52035 13.3754L1.88038 9.42142C1.50161 9.15723 1.58938 8.78108 1.62633 8.66913C1.66328 8.56166 1.81571 8.20343 2.28687 8.20343H9.25253L11.3681 1.80897C11.5113 1.37909 11.9085 1.34326 12.024 1.34326H12.0286C12.1487 1.34326 12.5414 1.37909 12.6892 1.80449L14.8648 8.20343H21.775C22.2416 8.20343 22.3986 8.55718 22.4356 8.66465C22.4679 8.7766 22.5557 9.15275 22.1815 9.41694Z" fill="white"/>
</svg>
