<svg width="20" height="20" viewBox="0 0 24 22" fill="none" xmlns="http://www.w3.org/2000/svg" >
<path d="M22.9995 8.2528C22.7198 7.40647 21.9664 6.86465 21.0685 6.86465H15.298L13.4798 1.38368C13.2001 0.541828 12.4466 0 11.5533 0C11.5488 0 11.5488 0 11.5443 0C10.6465 0.00447792 9.893 0.550784 9.61779 1.40159L7.8537 6.86465H2.03359C1.13576 6.86465 0.377787 7.41095 0.102572 8.25728C-0.172643 9.1036 0.116107 9.99023 0.847006 10.5097L5.55273 13.886L3.73902 19.3491C3.45929 20.1954 3.74353 21.082 4.46992 21.6059C4.83537 21.8701 5.25044 22 5.67003 22C6.08511 22 6.49568 21.8701 6.86113 21.6104L11.5759 18.2251L16.2365 21.6015C16.9584 22.1254 17.8968 22.1299 18.6232 21.6059C19.3496 21.082 19.6428 20.2044 19.3676 19.358L17.599 13.886L22.2686 10.5007C22.9905 9.98127 23.2748 9.09465 22.9995 8.2528Z" fill="#FDE700"/>
</svg>
