<svg width="25" height="22" viewBox="0 0 25 22" fill="none" xmlns="http://www.w3.org/2000/svg">
<path d="M23.8996 8.2528C23.6198 7.40647 22.8664 6.86465 21.9686 6.86465H16.1981L14.3798 1.38368C14.1001 0.541828 13.3467 0 12.4533 0C12.4488 0 12.4488 0 12.4443 0C11.5465 0.00447792 10.793 0.550784 10.5178 1.40159L8.75373 6.86465H2.93361C2.03578 6.86465 1.27781 7.41095 1.0026 8.25728C0.727382 9.1036 1.01613 9.99023 1.74703 10.5097L6.45275 13.886L4.63904 19.3491C4.35932 20.1954 4.64355 21.082 5.36994 21.6059C5.73539 21.8701 6.15047 22 6.57006 22C6.98514 22 7.3957 21.8701 7.76115 21.6104L12.4759 18.2251L17.1365 21.6015C17.8584 22.1254 18.7968 22.1299 19.5232 21.6059C20.2496 21.082 20.5429 20.2044 20.2676 19.358L18.499 13.886L23.1687 10.5007C23.8905 9.98127 24.1748 9.09465 23.8996 8.2528Z" fill="white"/>
</svg>
