<svg width="48" height="44" viewBox="0 0 48 44" fill="none" xmlns="http://www.w3.org/2000/svg">
<path d="M47.3941 16.5056C46.8213 14.8129 45.2785 13.7293 43.4401 13.7293H31.6244L27.9013 2.76735C27.3286 1.08366 25.7858 0 23.9566 0C23.9474 0 23.9474 0 23.9381 0C22.0997 0.00895583 20.5569 1.10157 19.9934 2.80318L16.3812 13.7293H4.46382C2.6254 13.7293 1.07337 14.8219 0.509833 16.5146C-0.0537019 18.2072 0.537548 19.9805 2.03415 21.0193L11.6697 27.772L7.95589 38.6982C7.38312 40.3908 7.96513 42.1641 9.45249 43.2119C10.2008 43.7403 11.0507 44 11.9099 44C12.7598 44 13.6005 43.7403 14.3488 43.2208L24.0028 36.4502L33.5459 43.2029C35.0241 44.2508 36.9456 44.2597 38.433 43.2119C39.9203 42.1641 40.5208 40.4087 39.9573 38.7161L36.3359 27.772L45.8975 21.0014C47.3756 19.9625 47.9577 18.1893 47.3941 16.5056Z" fill="#FDE700"/>
</svg>
